<svg xmlns="http://www.w3.org/2000/svg" width="860" height="486" viewBox="0 0 860 486">
<rect width="100%" height="100%" fill="#ffffff"/>
<text x="24" y="32" font-size="22" font-weight="700">停止上班上課訊號月份分布</text>
<text x="24" y="74" font-size="15">01月</text><rect x="105" y="56" width="22" height="22" fill="#2D7DD2" /><text x="140" y="73" font-size="14">21</text><text x="24" y="108" font-size="15">02月</text><rect x="105" y="90" width="1" height="22" fill="#2D7DD2" /><text x="119" y="107" font-size="14">1</text><text x="24" y="142" font-size="15">03月</text><rect x="105" y="124" width="9" height="22" fill="#2D7DD2" /><text x="127" y="141" font-size="14">9</text><text x="24" y="176" font-size="15">04月</text><rect x="105" y="158" width="34" height="22" fill="#2D7DD2" /><text x="152" y="175" font-size="14">33</text><text x="24" y="210" font-size="15">05月</text><rect x="105" y="192" width="30" height="22" fill="#2D7DD2" /><text x="148" y="209" font-size="14">29</text><text x="24" y="244" font-size="15">06月</text><rect x="105" y="226" width="128" height="22" fill="#2D7DD2" /><text x="246" y="243" font-size="14">121</text><text x="24" y="278" font-size="15">07月</text><rect x="105" y="260" width="570" height="22" fill="#2D7DD2" /><text x="688" y="277" font-size="14">539</text><text x="24" y="312" font-size="15">08月</text><rect x="105" y="294" width="600" height="22" fill="#2D7DD2" /><text x="718" y="311" font-size="14">567</text><text x="24" y="346" font-size="15">09月</text><rect x="105" y="328" width="590" height="22" fill="#2D7DD2" /><text x="708" y="345" font-size="14">558</text><text x="24" y="380" font-size="15">10月</text><rect x="105" y="362" width="315" height="22" fill="#2D7DD2" /><text x="433" y="379" font-size="14">298</text><text x="24" y="414" font-size="15">11月</text><rect x="105" y="396" width="71" height="22" fill="#2D7DD2" /><text x="189" y="413" font-size="14">68</text><text x="24" y="448" font-size="15">12月</text><rect x="105" y="430" width="5" height="22" fill="#2D7DD2" /><text x="123" y="447" font-size="14">5</text>
</svg>
