<svg xmlns="http://www.w3.org/2000/svg" width="760" height="420" viewBox="0 0 760 420">
<rect width="100%" height="100%" fill="#ffffff"/>
<text x="24" y="32" font-size="22" font-weight="700">縣市停止上班上課樣本排行</text>
<text x="24" y="76" font-size="15">高雄市</text><rect x="160" y="56" width="520" height="22" fill="#247BA0" /><text x="690" y="73" font-size="14">195</text><text x="24" y="110" font-size="15">花蓮縣</text><rect x="160" y="90" width="448" height="22" fill="#247BA0" /><text x="618" y="107" font-size="14">168</text><text x="24" y="144" font-size="15">臺東縣</text><rect x="160" y="124" width="434" height="22" fill="#247BA0" /><text x="604" y="141" font-size="14">163</text><text x="24" y="178" font-size="15">屏東縣</text><rect x="160" y="158" width="378" height="22" fill="#247BA0" /><text x="548" y="175" font-size="14">142</text><text x="24" y="212" font-size="15">嘉義縣</text><rect x="160" y="192" width="325" height="22" fill="#247BA0" /><text x="495" y="209" font-size="14">122</text><text x="24" y="246" font-size="15">宜蘭縣</text><rect x="160" y="226" width="298" height="22" fill="#247BA0" /><text x="468" y="243" font-size="14">112</text><text x="24" y="280" font-size="15">南投縣</text><rect x="160" y="260" width="293" height="22" fill="#247BA0" /><text x="463" y="277" font-size="14">110</text><text x="24" y="314" font-size="15">新竹縣</text><rect x="160" y="294" width="256" height="22" fill="#247BA0" /><text x="426" y="311" font-size="14">96</text><text x="24" y="348" font-size="15">臺南市</text><rect x="160" y="328" width="248" height="22" fill="#247BA0" /><text x="418" y="345" font-size="14">93</text><text x="24" y="382" font-size="15">臺中市</text><rect x="160" y="362" width="237" height="22" fill="#247BA0" /><text x="407" y="379" font-size="14">89</text>
</svg>
