<svg xmlns="http://www.w3.org/2000/svg" width="860" height="418" viewBox="0 0 860 418">
<rect width="100%" height="100%" fill="#ffffff"/>
<text x="24" y="32" font-size="22" font-weight="700">停止上班上課訊號年份高峰</text>
<text x="24" y="74" font-size="15">2024年</text><rect x="105" y="56" width="600" height="22" fill="#2D7DD2" /><text x="718" y="73" font-size="14">293</text><text x="24" y="108" font-size="15">2025年</text><rect x="105" y="90" width="503" height="22" fill="#2D7DD2" /><text x="621" y="107" font-size="14">246</text><text x="24" y="142" font-size="15">2023年</text><rect x="105" y="124" width="311" height="22" fill="#2D7DD2" /><text x="429" y="141" font-size="14">152</text><text x="24" y="176" font-size="15">2008年</text><rect x="105" y="158" width="303" height="22" fill="#2D7DD2" /><text x="421" y="175" font-size="14">148</text><text x="24" y="210" font-size="15">2016年</text><rect x="105" y="192" width="262" height="22" fill="#2D7DD2" /><text x="380" y="209" font-size="14">128</text><text x="24" y="244" font-size="15">2015年</text><rect x="105" y="226" width="245" height="22" fill="#2D7DD2" /><text x="363" y="243" font-size="14">120</text><text x="24" y="278" font-size="15">2012年</text><rect x="105" y="260" width="208" height="22" fill="#2D7DD2" /><text x="326" y="277" font-size="14">102</text><text x="24" y="312" font-size="15">2017年</text><rect x="105" y="294" width="194" height="22" fill="#2D7DD2" /><text x="312" y="311" font-size="14">95</text><text x="24" y="346" font-size="15">2013年</text><rect x="105" y="328" width="190" height="22" fill="#2D7DD2" /><text x="308" y="345" font-size="14">93</text><text x="24" y="380" font-size="15">2001年</text><rect x="105" y="362" width="186" height="22" fill="#2D7DD2" /><text x="304" y="379" font-size="14">91</text>
</svg>
