<svg xmlns="http://www.w3.org/2000/svg" width="760" height="352" viewBox="0 0 760 352">
<rect width="100%" height="100%" fill="#ffffff"/>
<text x="24" y="32" font-size="22" font-weight="700">縣市停止上班上課樣本排行</text>
<text x="24" y="76" font-size="15">基隆市</text><rect x="160" y="56" width="520" height="22" fill="#247BA0" /><text x="690" y="73" font-size="14">1</text><text x="24" y="110" font-size="15">臺北市</text><rect x="160" y="90" width="520" height="22" fill="#247BA0" /><text x="690" y="107" font-size="14">1</text><text x="24" y="144" font-size="15">新北市(改制前臺北縣)</text><rect x="160" y="124" width="520" height="22" fill="#247BA0" /><text x="690" y="141" font-size="14">1</text><text x="24" y="178" font-size="15">桃園縣</text><rect x="160" y="158" width="520" height="22" fill="#247BA0" /><text x="690" y="175" font-size="14">1</text><text x="24" y="212" font-size="15">新竹縣</text><rect x="160" y="192" width="520" height="22" fill="#247BA0" /><text x="690" y="209" font-size="14">1</text><text x="24" y="246" font-size="15">臺南市</text><rect x="160" y="226" width="520" height="22" fill="#247BA0" /><text x="690" y="243" font-size="14">1</text><text x="24" y="280" font-size="15">高雄市</text><rect x="160" y="260" width="520" height="22" fill="#247BA0" /><text x="690" y="277" font-size="14">1</text><text x="24" y="314" font-size="15">屏東縣</text><rect x="160" y="294" width="520" height="22" fill="#247BA0" /><text x="690" y="311" font-size="14">1</text>
</svg>
